<svg xmlns="http://www.w3.org/2000/svg" viewBox="0 0 48 48">
  <path d="M24 0C16.3 0 10 6.3 10 14c0 10.5 14 26 14 26s14-15.5 14-26c0-7.7-6.3-14-14-14z" fill="#FF5252"/>
  <path d="M24 7c-3.9 0-7 3.1-7 7s3.1 7 7 7 7-3.1 7-7-3.1-7-7-7z" fill="#FF8A80"/>
  <!-- Cat Face -->
  <path d="M24 10c-2.2 0-4 1.8-4 4 0 1.5.8 2.8 2 3.4.6.3 1.3.5 2 .5s1.4-.2 2-.5c1.2-.6 2-1.9 2-3.4 0-2.2-1.8-4-4-4z" fill="white"/>
  <!-- Ears -->
  <path d="M21 12l-1.5-2L21 8.5zM27 12l1.5-2L27 8.5z" fill="#FF8A80"/>
  <!-- Eyes -->
  <circle cx="22.5" cy="13.5" r="0.75" fill="#424242"/>
  <circle cx="25.5" cy="13.5" r="0.75" fill="#424242"/>
  <!-- Whiskers -->
  <path stroke="#424242" stroke-width="0.5" d="M23 15l-2 1M25 15l2 1M24 14.5v1" fill="none"/>
</svg>